<?xml version="1.0" encoding="UTF-8"?>
<svg xmlns="http://www.w3.org/2000/svg" xmlns:xlink="http://www.w3.org/1999/xlink" width="1400px" height="950px" viewBox="0 0 1050 713" version="1.1">
<g id="surface1">
<path style="fill-rule:nonzero;fill:rgb(100%,100%,100%);fill-opacity:1;stroke-width:1;stroke-linecap:butt;stroke-linejoin:miter;stroke:rgb(0%,0%,0%);stroke-opacity:1;stroke-miterlimit:4;" d="M 239.713542 176.00149 L 449.713542 176.00149 L 449.713542 277.997622 L 239.713542 277.997622 Z M 239.713542 176.00149 " transform="matrix(0.75,0,0,0.750526,0,0)"/>
<path style="fill-rule:nonzero;fill:rgb(100%,100%,100%);fill-opacity:1;stroke-width:1;stroke-linecap:butt;stroke-linejoin:miter;stroke:rgb(0%,0%,0%);stroke-opacity:1;stroke-miterlimit:4;" d="M 240 655.997984 L 450 655.997984 L 450 757.999321 L 240 757.999321 Z M 240 655.997984 " transform="matrix(0.75,0,0,0.750526,0,0)"/>
<path style="fill-rule:nonzero;fill:rgb(100%,100%,100%);fill-opacity:1;stroke-width:1;stroke-linecap:butt;stroke-linejoin:miter;stroke:rgb(0%,0%,0%);stroke-opacity:1;stroke-miterlimit:4;" d="M 240 415.999737 L 450 415.999737 L 450 518.001074 L 240 518.001074 Z M 240 415.999737 " transform="matrix(0.75,0,0,0.750526,0,0)"/>
<path style="fill-rule:nonzero;fill:rgb(100%,100%,100%);fill-opacity:1;stroke-width:1;stroke-linecap:butt;stroke-linejoin:miter;stroke:rgb(0%,0%,0%);stroke-opacity:1;stroke-miterlimit:4;" d="M 570 176.00149 L 675 176.00149 L 675 277.997622 L 570 277.997622 Z M 570 176.00149 " transform="matrix(0.75,0,0,0.750526,0,0)"/>
<path style="fill-rule:nonzero;fill:rgb(100%,100%,100%);fill-opacity:1;stroke-width:1;stroke-linecap:butt;stroke-linejoin:miter;stroke:rgb(0%,0%,0%);stroke-opacity:1;stroke-miterlimit:4;" d="M 570 655.997984 L 675 655.997984 L 675 757.999321 L 570 757.999321 Z M 570 655.997984 " transform="matrix(0.75,0,0,0.750526,0,0)"/>
<path style="fill-rule:nonzero;fill:rgb(100%,100%,100%);fill-opacity:1;stroke-width:1;stroke-linecap:butt;stroke-linejoin:miter;stroke:rgb(0%,0%,0%);stroke-opacity:1;stroke-miterlimit:4;" d="M 570 415.999737 L 675 415.999737 L 675 518.001074 L 570 518.001074 Z M 570 415.999737 " transform="matrix(0.75,0,0,0.750526,0,0)"/>
<path style="fill-rule:nonzero;fill:rgb(100%,100%,100%);fill-opacity:1;stroke-width:1;stroke-linecap:butt;stroke-linejoin:miter;stroke:rgb(0%,0%,0%);stroke-opacity:1;stroke-miterlimit:4;" d="M 795 176.00149 L 900 176.00149 L 900 277.997622 L 795 277.997622 Z M 795 176.00149 " transform="matrix(0.75,0,0,0.750526,0,0)"/>
<path style="fill-rule:nonzero;fill:rgb(100%,100%,100%);fill-opacity:1;stroke-width:1;stroke-linecap:butt;stroke-linejoin:miter;stroke:rgb(0%,0%,0%);stroke-opacity:1;stroke-miterlimit:4;" d="M 795 655.997984 L 900 655.997984 L 900 757.999321 L 795 757.999321 Z M 795 655.997984 " transform="matrix(0.75,0,0,0.750526,0,0)"/>
<path style="fill-rule:nonzero;fill:rgb(100%,100%,100%);fill-opacity:1;stroke-width:1;stroke-linecap:butt;stroke-linejoin:miter;stroke:rgb(0%,0%,0%);stroke-opacity:1;stroke-miterlimit:4;" d="M 795 415.999737 L 900 415.999737 L 900 518.001074 L 795 518.001074 Z M 795 415.999737 " transform="matrix(0.75,0,0,0.750526,0,0)"/>
<path style="fill-rule:nonzero;fill:rgb(100%,100%,100%);fill-opacity:1;stroke-width:1;stroke-linecap:butt;stroke-linejoin:miter;stroke:rgb(0%,0%,0%);stroke-opacity:1;stroke-miterlimit:4;" d="M 1008.997688 228 L 1219.001359 228 L 1219.001359 330 L 1008.997688 330 Z M 1008.997688 228 " transform="matrix(0.000000000000000046,0.750526,-0.75,0.000000000000000047,1044.75,-626.689474)"/>
<path style="fill-rule:nonzero;fill:rgb(100%,100%,100%);fill-opacity:1;stroke-width:1;stroke-linecap:butt;stroke-linejoin:miter;stroke:rgb(0%,0%,0%);stroke-opacity:1;stroke-miterlimit:4;" d="M 1008.99805 606 L 1219.00172 606 L 1219.00172 708 L 1008.99805 708 Z M 1008.99805 606 " transform="matrix(0.000000000000000046,0.750526,-0.75,0.000000000000000047,1328.25,-342.990526)"/>
<path style="fill-rule:nonzero;fill:rgb(100%,100%,100%);fill-opacity:1;stroke-width:1;stroke-linecap:butt;stroke-linejoin:miter;stroke:rgb(0%,0%,0%);stroke-opacity:1;stroke-miterlimit:4;" d="M -0.1875 116.709765 L 63.8125 116.709765 L 63.8125 780.712548 L -0.1875 780.712548 Z M -0.1875 116.709765 " transform="matrix(0.75,0,0,0.750526,0,0)"/>
<path style=" stroke:none;fill-rule:nonzero;fill:rgb(0%,0%,0%);fill-opacity:1;" d="M 20.746094 320.273438 L 28.082031 320.273438 L 28.082031 312.957031 L 22.011719 312.957031 C 22.324219 313.097656 22.644531 313.226562 22.972656 313.332031 C 22.847656 313.660156 22.691406 313.976562 22.503906 314.269531 L 26.886719 314.269531 C 26.449219 315.539062 25.777344 316.664062 24.871094 317.648438 L 26.300781 318.773438 L 25.503906 319.78125 L 23.910156 318.539062 C 22.957031 319.335938 21.902344 319.917969 20.746094 320.273438 Z M 18.238281 322.175781 C 17.800781 322.128906 17.371094 322.128906 16.949219 322.175781 C 16.996094 321.378906 17.019531 320.582031 17.019531 319.78125 L 17.019531 312.136719 L 20.863281 312.136719 C 21.269531 311.808594 21.605469 311.445312 21.871094 311.035156 C 22.136719 310.613281 22.386719 310.113281 22.621094 309.535156 C 23.011719 309.722656 23.417969 309.863281 23.839844 309.957031 C 23.605469 310.722656 23.175781 311.449219 22.550781 312.136719 L 29.253906 312.136719 L 29.253906 322.152344 L 28.082031 322.152344 L 28.082031 321.027344 L 18.214844 321.027344 C 18.214844 321.402344 18.222656 321.78125 18.238281 322.175781 Z M 23.933594 316.921875 C 24.449219 316.375 24.871094 315.765625 25.199219 315.09375 L 21.988281 315.09375 L 21.753906 315.375 Z M 21.308594 312.957031 L 18.191406 312.957031 L 18.191406 320.273438 L 19.691406 320.273438 C 19.503906 319.945312 19.269531 319.640625 18.988281 319.359375 C 20.457031 319.21875 21.777344 318.714844 22.949219 317.835938 L 20.863281 316.335938 C 20.300781 316.851562 19.667969 317.308594 18.964844 317.695312 C 18.824219 317.308594 18.582031 316.984375 18.238281 316.734375 C 19.066406 316.328125 19.738281 315.832031 20.253906 315.234375 C 20.785156 314.621094 21.269531 313.867188 21.707031 312.957031 L 21.449219 313.167969 C 21.402344 313.09375 21.355469 313.023438 21.308594 312.957031 Z M 28.761719 309.746094 L 28.199219 311.035156 C 27.746094 310.789062 27.175781 310.507812 26.488281 310.191406 C 25.800781 309.863281 24.988281 309.558594 24.050781 309.277344 L 24.378906 307.914062 C 25.378906 308.195312 26.238281 308.511719 26.957031 308.851562 C 27.691406 309.183594 28.292969 309.480469 28.761719 309.746094 Z M 15.964844 311.972656 C 15.949219 311.753906 15.894531 311.542969 15.800781 311.339844 C 15.722656 311.140625 15.613281 310.953125 15.472656 310.777344 C 16.144531 310.589844 16.832031 310.355469 17.535156 310.074219 C 18.238281 309.792969 19.019531 309.417969 19.878906 308.945312 L 21.519531 308.054688 C 21.597656 308.277344 21.683594 308.496094 21.777344 308.710938 C 21.886719 308.917969 22.003906 309.109375 22.128906 309.300781 C 21.566406 309.644531 20.957031 309.980469 20.300781 310.308594 C 19.660156 310.625 18.933594 310.929688 18.121094 311.222656 C 17.308594 311.519531 16.589844 311.773438 15.964844 311.972656 Z M 16.996094 309.910156 L 15.824219 309.910156 L 15.824219 306.859375 L 22.855469 306.859375 L 21.402344 305.804688 L 22.082031 304.609375 L 24.214844 306.15625 L 23.816406 306.859375 L 30.894531 306.859375 L 30.894531 309.910156 L 29.746094 309.910156 L 29.746094 307.726562 L 16.996094 307.726562 Z M 16.996094 309.910156 "/>
<path style="fill-rule:nonzero;fill:rgb(100%,100%,100%);fill-opacity:1;stroke-width:1;stroke-linecap:butt;stroke-linejoin:miter;stroke:rgb(0%,0%,0%);stroke-opacity:1;stroke-miterlimit:4;" d="M 1337.578125 121.154563 L 1401.578125 121.154563 L 1401.578125 785.157346 L 1337.578125 785.157346 Z M 1337.578125 121.154563 " transform="matrix(0.75,0,0,0.750526,0,0)"/>
<path style=" stroke:none;fill-rule:nonzero;fill:rgb(0%,0%,0%);fill-opacity:1;" d="M 1024.078125 323.613281 L 1031.414062 323.613281 L 1031.414062 316.292969 L 1025.34375 316.292969 C 1025.652344 316.433594 1025.976562 316.5625 1026.304688 316.667969 C 1026.175781 316.996094 1026.023438 317.3125 1025.835938 317.609375 L 1030.21875 317.609375 C 1029.777344 318.875 1029.105469 320 1028.203125 320.984375 L 1029.632812 322.109375 L 1028.835938 323.121094 L 1027.242188 321.875 C 1026.285156 322.671875 1025.230469 323.253906 1024.078125 323.613281 Z M 1021.570312 325.511719 C 1021.128906 325.464844 1020.703125 325.464844 1020.28125 325.511719 C 1020.328125 324.714844 1020.351562 323.917969 1020.351562 323.121094 L 1020.351562 315.472656 L 1024.195312 315.472656 C 1024.597656 315.144531 1024.933594 314.78125 1025.203125 314.371094 C 1025.464844 313.949219 1025.71875 313.449219 1025.953125 312.871094 C 1026.339844 313.058594 1026.75 313.199219 1027.171875 313.292969 C 1026.9375 314.058594 1026.503906 314.789062 1025.882812 315.472656 L 1032.585938 315.472656 L 1032.585938 325.488281 L 1031.414062 325.488281 L 1031.414062 324.363281 L 1021.546875 324.363281 C 1021.546875 324.738281 1021.550781 325.117188 1021.570312 325.511719 Z M 1027.265625 320.257812 C 1027.78125 319.710938 1028.203125 319.101562 1028.53125 318.429688 L 1025.320312 318.429688 L 1025.085938 318.710938 Z M 1024.640625 316.292969 L 1021.523438 316.292969 L 1021.523438 323.613281 L 1023.023438 323.613281 C 1022.835938 323.285156 1022.601562 322.976562 1022.320312 322.695312 C 1023.785156 322.554688 1025.109375 322.050781 1026.28125 321.171875 L 1024.195312 319.671875 C 1023.632812 320.1875 1023 320.644531 1022.296875 321.03125 C 1022.15625 320.644531 1021.910156 320.324219 1021.570312 320.070312 C 1022.394531 319.664062 1023.070312 319.167969 1023.585938 318.570312 C 1024.113281 317.960938 1024.597656 317.203125 1025.039062 316.292969 L 1024.78125 316.503906 C 1024.734375 316.429688 1024.6875 316.359375 1024.640625 316.292969 Z M 1032.09375 313.082031 L 1031.53125 314.371094 C 1031.074219 314.125 1030.503906 313.84375 1029.820312 313.527344 C 1029.128906 313.199219 1028.320312 312.894531 1027.382812 312.613281 L 1027.710938 311.25 C 1028.707031 311.53125 1029.566406 311.847656 1030.289062 312.191406 C 1031.019531 312.519531 1031.625 312.816406 1032.09375 313.082031 Z M 1019.296875 315.308594 C 1019.277344 315.09375 1019.226562 314.882812 1019.132812 314.675781 C 1019.050781 314.476562 1018.945312 314.289062 1018.804688 314.113281 C 1019.472656 313.925781 1020.164062 313.691406 1020.867188 313.410156 C 1021.570312 313.128906 1022.347656 312.753906 1023.210938 312.285156 L 1024.851562 311.390625 C 1024.925781 311.613281 1025.015625 311.832031 1025.109375 312.050781 C 1025.214844 312.253906 1025.332031 312.449219 1025.460938 312.636719 C 1024.898438 312.980469 1024.289062 313.316406 1023.632812 313.644531 C 1022.988281 313.960938 1022.261719 314.265625 1021.453125 314.558594 C 1020.636719 314.859375 1019.917969 315.109375 1019.296875 315.308594 Z M 1020.328125 313.246094 L 1019.15625 313.246094 L 1019.15625 310.195312 L 1026.1875 310.195312 L 1024.734375 309.140625 L 1025.414062 307.945312 L 1027.546875 309.492188 L 1027.148438 310.195312 L 1034.226562 310.195312 L 1034.226562 313.246094 L 1033.078125 313.246094 L 1033.078125 311.0625 L 1020.328125 311.0625 Z M 1020.328125 313.246094 "/>
<path style="fill-rule:nonzero;fill:rgb(100%,100%,100%);fill-opacity:1;stroke-width:1;stroke-linecap:butt;stroke-linejoin:miter;stroke:rgb(0%,0%,0%);stroke-opacity:1;stroke-miterlimit:4;" d="M 587.109375 873.860723 L 854.286458 873.860723 L 854.286458 950.556901 L 587.109375 950.556901 Z M 587.109375 873.860723 " transform="matrix(0.75,0,0,0.750526,0,0)"/>
<path style=" stroke:none;fill-rule:nonzero;fill:rgb(0%,0%,0%);fill-opacity:1;" d="M 542.71875 679.597656 L 549.046875 679.597656 L 549.046875 693.925781 C 549.046875 694.734375 548.8125 695.296875 548.34375 695.613281 C 547.828125 695.925781 546.996094 696.070312 545.859375 696.058594 C 545.980469 695.496094 545.847656 695.003906 545.460938 694.582031 C 545.816406 694.613281 546.234375 694.628906 546.703125 694.628906 C 547.183594 694.640625 547.488281 694.59375 547.617188 694.488281 C 547.769531 694.300781 547.839844 693.867188 547.828125 693.199219 L 547.828125 685.859375 L 544.03125 685.859375 C 544.03125 685.96875 544.035156 686.082031 544.054688 686.1875 C 543.585938 686.140625 543.128906 686.140625 542.695312 686.1875 C 542.722656 685.34375 542.742188 684.496094 542.742188 683.652344 Z M 535.59375 695.941406 C 535.136719 695.878906 534.679688 695.878906 534.210938 695.941406 C 534.257812 695.097656 534.28125 694.261719 534.28125 693.433594 L 534.28125 679.667969 L 540.632812 679.667969 L 540.632812 685.976562 L 535.523438 685.976562 L 535.523438 693.433594 C 535.523438 694.261719 535.546875 695.097656 535.59375 695.941406 Z M 547.828125 684.917969 L 547.828125 683.230469 L 543.984375 683.230469 L 543.984375 684.917969 Z M 547.828125 682.316406 L 547.828125 680.535156 L 543.960938 680.535156 C 543.972656 681.132812 543.984375 681.722656 543.984375 682.316406 Z M 535.523438 685.035156 L 539.390625 685.035156 L 539.390625 683.300781 L 535.523438 683.300781 Z M 539.390625 682.363281 L 539.390625 680.605469 L 535.523438 680.605469 C 535.523438 681.183594 535.523438 681.769531 535.523438 682.363281 Z M 539.390625 682.363281 "/>
</g>
</svg>
